<svg
  version="1.1"
  id="Layer_1"
  xmlns="http://www.w3.org/2000/svg"
  xmlns:xlink="http://www.w3.org/1999/xlink"
  x="0px"
  y="0px"
  viewBox="0 0 1033.387 274.239"
  aria-labelledby="title-desc"
  role="img"
  aria-label="Main Logo"
  fill="black"
>
  <title id="title-desc">ForMe's Main Logo</title>
  <desc>The main logo of the company or website, representing its brand identity.</desc>
  

    <g>
      <path d="M136.104,9.269c8.427,5.229,12.662,11.092,12.662,17.599c0,4.346-1.599,7.937-4.795,10.797
        c-3.085,2.496-6.674,3.759-10.783,3.759c-3.772-0.338-7.138-1.6-10.11-3.759c-2.721-2.062-5.469-5.65-8.217-10.797
        c-5.02-9.228-7.979-14.191-8.891-14.907c-3.197-2.833-8.722-3.589-16.602-2.216C76.115,12.718,69.51,23.053,69.51,40.735v62.147
        h51.183v9.241H69.51v121.535c0,23.865,7.881,35.771,23.614,35.771v6H4.964v-6c15.748,0.141,23.629-11.779,23.629-35.771V112.124
        H0v-9.241h28.593v-32.7C28.368,49.303,34.65,32.588,47.41,20.01C61.125,6.66,77.951,0,97.919,0
        C113.555,0,126.273,3.084,136.104,9.269z"/>
      <path d="M263.976,123.089c15.186,16.211,23.109,37.652,23.795,64.349c0,25.691-8.61,47.426-25.843,65.207
        c-17.135,17.836-37.553,26.74-61.279,26.74c-23.643,0-43.667-8.568-60.102-25.674c-16.209-17.025-24.301-38.016-24.301-63.004
        c0-25.69,8.147-47.439,24.469-65.249c16.435-18.005,37.497-26.965,63.172-26.853C229.003,98.705,249.027,106.895,263.976,123.089
        z M173.249,131.461c-7.88,16.225-11.807,35.856-11.807,58.909c0,22.479,3.926,41.592,11.807,57.326
        c7.853,15.396,17.444,23.121,28.747,23.121c11.779,0,21.637-8.063,29.616-24.145c8.217-16.086,12.34-35.787,12.34-59.051
        c0-24.189-3.478-43.653-10.446-58.389c-6.97-14.809-16.842-22.256-29.616-22.256
        C191.548,106.977,181.354,115.152,173.249,131.461z"/>
      <path d="M362.246,123.58c10.152-16.308,24.82-24.455,43.988-24.455c11.625,0.113,22.086,2.777,31.313,8.035
        c7.992,4.571,12.004,10.433,12.004,17.641c0,3.871-1.235,7.334-3.675,10.335c-2.468,3.029-6.001,4.542-10.629,4.542
        c-4.627,0-8.456-1.164-11.471-3.491c-3.029-2.355-5.693-6.029-7.964-11.05c-2.972-6.156-6.029-10.264-9.255-12.325
        c-3.982-3.07-8.441-4.235-13.35-3.437c-6.941,0.828-13.91,6.578-20.865,17.305c-6.731,10.728-10.096,23.108-10.096,37.117v69.006
        c0,24.188,7.796,36.457,23.446,36.809v5.818h-87.656v-5.818c15.411-0.701,23.123-12.943,23.123-36.809v-92.422
        c0-19.619-7.712-28.257-23.123-25.859v-5.818l59.582-9.578C360.703,102.995,362.246,111.172,362.246,123.58z"/>
      <path d="M715.946,112.783c4.32,4.361,7.6,9.27,9.761,14.737c12.228-19.855,29.615-29.713,52.206-29.602
        c17.121,0,30.527,4.964,40.23,14.864c9.479,9.619,14.387,24.105,14.724,43.513v75.652c0.112,23.965,8.05,36.121,23.782,36.473
        v5.818h-89.521v-5.818c16.099-0.352,24.133-12.508,24.133-36.473v-81.317c0-10.602-2.847-19.492-8.566-26.699
        c-6.142-7.63-13.52-11.472-22.073-11.472c-7.992,0-15.17,3.842-21.566,11.472c-5.833,7.207-8.723,16.098-8.723,26.699v81.317
        c0,23.965,7.91,36.121,23.784,36.473v5.818h-88.835v-5.818c16.197-0.352,24.247-12.508,24.133-36.473v-81.317
        c0.114-10.602-2.973-19.618-9.254-27.051c-6.044-7.389-13.294-11.12-21.734-11.12c-7.769,0-14.836,3.842-21.231,11.472
        c-6.394,7.866-9.533,16.77-9.423,26.699v81.317c0,23.965,8.077,36.121,24.147,36.473v5.818h-89.535v-5.818
        c15.86-0.352,23.796-12.508,23.796-36.473v-93.125c0-19.631-7.936-28.072-23.796-25.338v-5.974l60.27-9.592
        c2.96,2.749,4.67,10.433,5.118,23.109c12.004-15.396,28.016-23.109,48.111-23.109
        C693.005,97.919,706.354,102.883,715.946,112.783z"/>
      <path d="M1010.898,119.654c14.387,15.187,22.155,35.436,23.278,60.76H910.413c-1.487,21.916,3.421,40.764,14.722,56.512
        c11.305,15.633,25.383,23.207,42.293,22.758c14.598-0.352,26.867-5.539,36.795-15.58s17.333-23.277,22.239-39.711h5.499
        c-4.686,22.928-14.557,40.932-29.616,53.945c-14.948,12.887-32.756,19.322-53.399,19.322c-22.828,0-42.292-8.566-58.39-25.689
        c-15.762-16.896-23.613-37.861-23.613-62.988c0-26.026,7.852-47.762,23.613-65.219c15.972-17.922,36.516-26.869,61.63-26.869
        C977.161,96.895,996.736,104.482,1010.898,119.654z M932.821,112.124c-5.245,4.669-9.34,10.671-12.313,17.978
        c-2.974,7.081-5.189,14.19-6.675,21.397c-1.487,6.97-2.456,13.784-2.918,20.517h79.271c0.351-8.527-0.631-17.726-2.916-27.542
        c-2.047-9.942-6.338-19.112-12.831-27.541c-6.408-8.582-14.093-12.677-23.11-12.339
        C944.473,104.833,938.317,107.314,932.821,112.124z"/>
      <path d="M527.595,186.639l-9.34,2.469c-9.592,2.51-16.826,10.293-18.621,20.01l-1.627,8.906l-1.654-8.906
        c-1.795-9.717-9.03-17.5-18.594-20.01l-9.367-2.469l9.395-2.396c9.536-2.426,16.827-10.168,18.679-19.829l1.542-7.895
        l1.515,7.867c1.852,9.688,9.142,17.43,18.706,19.856L527.595,186.639z"/>
    </g>

</svg>